<svg width="480" height="480" viewBox="0 0 480 480" fill="none" xmlns="http://www.w3.org/2000/svg">
<g clip-path="url(#clip0_74_141)">
<rect width="480" height="480" fill="white"/>
<mask id="mask0_74_141" style="mask-type:luminance" maskUnits="userSpaceOnUse" x="-16" y="-4" width="501" height="501">
<path d="M484.392 -3.67236H-15.6084V496.328H484.392V-3.67236Z" fill="white"/>
</mask>
<g mask="url(#mask0_74_141)">
<path d="M285.384 186.064C285.384 172.401 281.569 160.288 275.689 152.739C275.138 151.768 274.435 150.955 273.619 150.365C270.063 146.724 265.921 144.627 261.492 144.627C257.521 144.627 253.779 146.318 250.483 149.292H204.755C201.153 149.292 198.234 153.082 198.234 157.759V209.258C198.234 212.356 199.521 215.057 201.434 216.534V299.85H269.787V224.93C278.892 219.084 285.384 203.889 285.384 186.064Z" fill="#EB2890" stroke="#F6A1D0" stroke-width="4" stroke-miterlimit="10"/>
<path d="M210.078 163.202C207.559 168.453 210.178 174.947 215.925 177.703L219.662 179.495C225.41 182.253 232.112 180.229 234.63 174.977L259.827 122.44C262.347 117.189 259.731 110.697 253.982 107.94L250.245 106.147C244.498 103.39 237.795 105.412 235.275 110.664L210.078 163.202Z" fill="#EB2890" stroke="#F6A1D0" stroke-width="4" stroke-miterlimit="10"/>
<path d="M184.002 155.559C181.484 160.81 184.102 167.304 189.849 170.06L193.586 171.852C199.334 174.61 206.036 172.586 208.554 167.334L233.751 114.797C236.27 109.546 233.655 103.054 227.906 100.297L224.169 98.5037C218.422 95.7467 211.719 97.7687 209.199 103.021L184.002 155.559Z" fill="#EB2890" stroke="#F6A1D0" stroke-width="4" stroke-miterlimit="10"/>
<path d="M234.801 172.658C232.044 178.406 234.467 185.299 240.214 188.056L243.953 189.851C249.7 192.606 256.594 190.181 259.353 184.432L279.439 142.553C282.196 136.806 279.771 129.913 274.026 127.156L270.286 125.363C264.538 122.606 257.646 125.03 254.889 130.779L234.801 172.658Z" fill="#EB2890" stroke="#F6A1D0" stroke-width="4" stroke-miterlimit="10"/>
<path d="M260.941 180.774C258.184 186.52 260.607 193.413 266.356 196.169L270.095 197.963C275.843 200.719 282.734 198.294 285.49 192.549L300.108 162.067C302.866 156.319 300.443 149.429 294.694 146.672L290.956 144.879C285.207 142.121 278.318 144.544 275.559 150.292L260.941 180.774Z" fill="#EB2890" stroke="#F6A1D0" stroke-width="4" stroke-miterlimit="10"/>
<path d="M230.053 147.6C215.576 145.724 201.099 143.847 186.623 141.972C179.661 141.069 171.73 138.139 166.127 142.719C143.763 161.004 192.789 203.137 201.794 218.079C207.403 204.337 214.941 196.692 210.628 180.11C225.814 181.089 237.208 173.553 238.585 165.852C238.795 165.21 238.954 164.541 239.044 163.847L239.553 159.925C240.332 153.899 236.082 148.381 230.053 147.6Z" fill="#EB2890" stroke="#F6A1D0" stroke-width="4" stroke-miterlimit="10"/>
<path d="M211.817 180.728C218.411 180.728 223.806 189.12 226.204 194.515C230.999 204.107 230.399 216.695 229.201 227.485" fill="#EB2890"/>
<path d="M211.817 183.228C219.383 183.785 224.234 194.684 225.98 200.954C228.369 209.538 227.64 218.74 226.701 227.485C226.358 230.68 231.361 230.656 231.701 227.485C232.872 216.571 233.499 204.941 229.012 194.644C225.831 187.344 220.544 178.872 211.817 178.229C208.607 177.992 208.622 182.993 211.817 183.228Z" fill="#F6A1D0"/>
</g>
<mask id="mask1_74_141" style="mask-type:luminance" maskUnits="userSpaceOnUse" x="-69" y="-128" width="708" height="708">
<path d="M284.55 -128L-69 225.55L284.55 579.1L638.1 225.55L284.55 -128Z" fill="white"/>
</mask>
<g mask="url(#mask1_74_141)">
<path d="M313.933 254.933C357.864 211.002 357.864 139.775 313.933 95.8439C270.002 51.9127 198.775 51.9127 154.844 95.8439C110.913 139.775 110.913 211.002 154.844 254.933C198.775 298.864 270.002 298.864 313.933 254.933Z" stroke="#EB2890" stroke-width="40" stroke-miterlimit="10"/>
</g>
<mask id="mask2_74_141" style="mask-type:luminance" maskUnits="userSpaceOnUse" x="-16" y="-4" width="501" height="501">
<path d="M484.392 -3.67236H-15.6084V496.328H484.392V-3.67236Z" fill="white"/>
</mask>
<g mask="url(#mask2_74_141)">
<path d="M169.542 366.661H299.24" stroke="#EB2890" stroke-width="40" stroke-miterlimit="10"/>
</g>
<mask id="mask3_74_141" style="mask-type:luminance" maskUnits="userSpaceOnUse" x="-16" y="-4" width="501" height="501">
<path d="M484.392 -3.67236H-15.6084V496.328H484.392V-3.67236Z" fill="white"/>
</mask>
<g mask="url(#mask3_74_141)">
<path d="M234.392 286.22V430.442" stroke="#EB2890" stroke-width="40" stroke-miterlimit="10"/>
</g>
</g>
<defs>
<clipPath id="clip0_74_141">
<rect width="480" height="480" fill="white"/>
</clipPath>
</defs>
</svg>
